<svg xmlns="http://www.w3.org/2000/svg" width="116" height="37" viewBox="0 0 116 37" fill="none">
	<path d="M93.4102 12.8896H97.3125L101.725 23.3447H101.82L105.82 13.2646H110.588L100.796 35.6973H96.0605L99.7402 27.3447H98.8438L93.4102 15.123V17.6172H92.1943C91.4905 17.6172 90.8503 17.7024 90.2744 17.873C89.7199 18.0223 89.2501 18.2672 88.8662 18.6084C88.4823 18.9497 88.1831 19.4085 87.9697 19.9844C87.7777 20.539 87.6816 21.2225 87.6816 22.0332V29.1367H83.2021V13.2646H87.042L87.458 16.625H87.5537C88.0016 15.6226 88.5031 14.8546 89.0576 14.3213C89.6121 13.7668 90.2524 13.3932 90.9775 13.2012C91.7029 12.9878 92.5142 12.8809 93.4102 12.8809V12.8896ZM74.1582 12.8809C75.6941 12.8809 77.0811 13.2326 78.3184 13.9365C79.5557 14.6405 80.5374 15.6222 81.2627 16.8809C81.988 18.1182 82.3506 19.5585 82.3506 21.2012C82.3505 22.8222 81.9878 24.262 81.2627 25.5205C80.5374 26.7578 79.5557 27.7395 78.3184 28.4648C77.0812 29.1687 75.6841 29.5204 74.127 29.5205C72.6123 29.5205 71.2354 29.1688 69.998 28.4648C68.7609 27.7395 67.78 26.7577 67.0547 25.5205C66.3295 24.262 65.9668 22.8223 65.9668 21.2012C65.9668 19.5798 66.3294 18.1395 67.0547 16.8809C67.78 15.6223 68.7608 14.6405 69.998 13.9365C71.2353 13.2326 72.6223 12.8809 74.1582 12.8809ZM61.9941 13.2646H66.1543V16.9131H61.9941V23.4404C61.9941 24.1658 62.1437 24.6779 62.4424 24.9766C62.7624 25.2539 63.2954 25.3926 64.042 25.3926H66.0898V29.1367H63.21C62.0794 29.1367 61.0768 28.9554 60.2021 28.5928C59.3488 28.2301 58.6871 27.6328 58.2178 26.8008C57.7485 25.9689 57.5137 24.8383 57.5137 23.4092V16.9131H54.7939V13.2646H57.5137L57.9941 8.91309H61.9941V13.2646ZM74.1582 16.6885C73.5183 16.6885 72.9208 16.8599 72.3662 17.2012C71.8117 17.5212 71.3637 18.0226 71.0225 18.7051C70.7025 19.3664 70.543 20.1986 70.543 21.2012C70.543 22.2036 70.7026 23.046 71.0225 23.7285C71.3638 24.3898 71.8016 24.8911 72.335 25.2324C72.8896 25.5524 73.487 25.7129 74.127 25.7129C74.8094 25.7128 75.417 25.5523 75.9502 25.2324C76.5049 24.8911 76.9427 24.3898 77.2627 23.7285C77.6039 23.046 77.7744 22.2035 77.7744 21.2012C77.7744 20.1986 77.6039 19.3664 77.2627 18.7051C76.9427 18.0224 76.5049 17.5212 75.9502 17.2012C75.4169 16.8599 74.8195 16.6885 74.1582 16.6885Z" fill="#0B1F2E"/>
	<path d="M16.2051 26.1289H16.3018L22.0938 7.12109H27.1816L19.9492 29.5205H12.5254L5.29395 7.12109H10.3496L16.2051 26.1289ZM32.502 29.5205H27.7021V7.12109H32.502V29.5205ZM42.4863 7.12109C45.0675 7.12113 47.2114 7.59067 48.918 8.5293C50.6245 9.44661 51.8837 10.7474 52.6943 12.4326C53.5263 14.0966 53.9424 16.06 53.9424 18.3213C53.9423 20.5611 53.5263 22.5238 52.6943 24.209C51.8837 25.873 50.6246 27.1746 48.918 28.1133C47.2327 29.0519 45.0779 29.5205 42.4541 29.5205H34.4219V7.12109H42.4863ZM40.3926 12.4824C39.7259 12.0975 38.8926 12.5788 38.8926 13.3486V23.293C38.8926 24.0628 39.7259 24.5441 40.3926 24.1592L49.0049 19.1865C49.6714 18.8016 49.6714 17.84 49.0049 17.4551L40.3926 12.4824Z" fill="url(#paint0_linear_106_4065)"/>
	<defs>
		<linearGradient id="paint0_linear_106_4065" x1="5.29395" y1="9.27612" x2="53.4139" y2="28.3394" gradientUnits="userSpaceOnUse">
			<stop stop-color="#ABDF00"/>
			<stop offset="1" stop-color="#00E2E9"/>
		</linearGradient>
	</defs>
</svg>